<?xml version="1.0" standalone="no"?>
<!DOCTYPE svg PUBLIC "-//W3C//DTD SVG 20010904//EN"
 "http://www.w3.org/TR/2001/REC-SVG-20010904/DTD/svg10.dtd">
<svg version="1.0" xmlns="http://www.w3.org/2000/svg"
 width="400.000000pt" height="400.000000pt" viewBox="0 0 400.000000 400.000000"
 preserveAspectRatio="xMidYMid meet">
<metadata>
Created by potrace 1.14, written by Peter Selinger 2001-2017
</metadata>
<g transform="translate(0.000000,400.000000) scale(0.100000,-0.100000)"
fill="#000000" stroke="none">
<path d="M1849 3996 c-2 -2 -33 -6 -69 -9 -103 -9 -315 -56 -424 -94 -122 -43
-397 -174 -426 -203 -3 -3 -32 -23 -65 -45 -139 -91 -324 -262 -422 -391 -13
-16 -37 -47 -54 -69 -120 -156 -246 -411 -307 -625 -62 -217 -77 -331 -76
-580 1 -259 36 -457 120 -672 20 -51 41 -106 48 -123 17 -44 113 -222 149
-275 115 -171 224 -295 369 -422 63 -56 216 -168 258 -190 14 -7 27 -16 30
-20 20 -26 380 -179 478 -204 9 -2 44 -10 77 -19 64 -16 147 -31 242 -43 74
-9 369 -9 449 0 92 10 259 46 354 74 99 30 294 109 330 135 14 9 29 17 33 17
17 1 226 136 297 193 279 223 494 515 623 845 35 88 80 238 91 299 3 17 10 53
15 82 39 204 34 564 -10 743 -4 19 -11 50 -14 69 -12 69 -88 280 -144 396
-157 328 -398 605 -699 803 -35 23 -68 42 -73 42 -5 0 -9 4 -9 8 0 21 -367
180 -478 208 -9 2 -44 10 -77 19 -60 15 -73 18 -153 30 -23 4 -54 9 -70 11
-35 6 -388 15 -393 10z"/>
</g>
</svg>
